<svg width="48" height="34" viewBox="0 0 48 34" fill="none" xmlns="http://www.w3.org/2000/svg">
<g clip-path="url(#clip0_4492_658)">
<path d="M12.546 1.20494C12.5461 1.05344 12.5132 0.903771 12.4498 0.766518C12.3863 0.629265 12.2937 0.507778 12.1786 0.410645C11.9484 0.192908 11.644 0.0732538 11.3286 0.0765968C11.1095 0.0730345 10.8938 0.132229 10.7065 0.247332C10.5 0.380162 10.3431 0.578654 10.2607 0.811502L6.34151 9.61057L2.41254 0.794181C2.32646 0.574989 2.17511 0.388217 1.97941 0.259671C1.78371 0.131126 1.55332 0.0671545 1.32007 0.0765968C0.985937 0.0749397 0.662102 0.193339 0.406417 0.410645C0.278927 0.506251 0.17563 0.630963 0.104963 0.774598C0.0342953 0.918232 -0.00173873 1.07672 -0.000196651 1.2371C-0.0015627 1.39462 0.0327913 1.55037 0.100232 1.6924L4.99919 12.2137L3.25026 15.9847C3.17664 16.1459 3.13345 16.3197 3.12289 16.4969C3.12069 16.6455 3.15301 16.7925 3.21725 16.9261C3.28148 17.0598 3.37585 17.1763 3.49276 17.2665C3.72315 17.4639 4.01614 17.571 4.31824 17.5683C4.53993 17.5674 4.75639 17.5002 4.9404 17.3753C5.14128 17.2421 5.29755 17.0506 5.38866 16.826L12.4456 1.6924C12.5124 1.53877 12.5466 1.37272 12.546 1.20494Z" fill="#2963A3"/>
<path d="M37.1831 11.776C37.1755 11.9349 37.2011 12.0936 37.258 12.242C37.315 12.3903 37.4021 12.5249 37.5137 12.6371C37.63 12.7452 37.7662 12.829 37.9146 12.8838C38.0629 12.9385 38.2206 12.9632 38.3784 12.9563C38.7225 12.9713 39.0589 12.8506 39.3166 12.6198C39.4353 12.5098 39.5294 12.3753 39.5923 12.2255C39.6553 12.0757 39.6857 11.914 39.6815 11.7513V1.30916C39.69 1.13979 39.664 0.970459 39.605 0.811685C39.546 0.652911 39.4553 0.508084 39.3386 0.386198C39.074 0.168932 38.7429 0.051358 38.4019 0.0536151C38.061 0.0558722 37.7314 0.17782 37.4696 0.39857C37.3511 0.517084 37.2582 0.659269 37.1971 0.816054C37.1359 0.972839 37.1078 1.14078 37.1145 1.30916V7.33934C37.1145 8.4149 36.814 9.27847 36.2131 9.93007C35.905 10.2563 35.5314 10.5121 35.1174 10.6802C34.7033 10.8484 34.2584 10.925 33.8126 10.905C32.9683 10.905 32.3421 10.6658 31.9338 10.1874C31.5256 9.70902 31.3223 8.96669 31.3239 7.96042V1.30916C31.3324 1.13979 31.3064 0.970459 31.2474 0.811685C31.1884 0.652911 31.0977 0.508084 30.981 0.386198C30.8553 0.270523 30.708 0.181385 30.5477 0.12402C30.3875 0.0666557 30.2175 0.0422205 30.0477 0.0521502C29.875 0.0417667 29.7019 0.0659287 29.5383 0.123251C29.3748 0.180574 29.2241 0.26993 29.0949 0.386198C28.977 0.507291 28.8856 0.651991 28.8266 0.810964C28.7675 0.969936 28.7421 1.13965 28.7519 1.30916V7.99012C28.7519 11.3421 30.2592 13.0182 33.2737 13.0182C34.0744 13.0292 34.8649 12.8351 35.5713 12.454C36.2568 12.0783 36.8174 11.5068 37.1831 10.811V11.776Z" fill="#2963A3"/>
<path d="M14.4521 31.898L13.7393 31.846C13.0632 31.7949 12.5594 31.5812 12.2279 31.2051C11.8997 30.829 11.738 30.2376 11.738 29.4334V23.2251H14.2439C14.5397 23.2476 14.8335 23.1596 15.0693 22.9777C15.1693 22.8834 15.2473 22.768 15.2977 22.6396C15.3481 22.5112 15.3697 22.3731 15.3608 22.2353C15.3686 22.0976 15.3466 21.9598 15.2963 21.8316C15.2459 21.7034 15.1685 21.5878 15.0693 21.493C14.8375 21.3014 14.5428 21.2051 14.2439 21.2233H11.7282V18.5806C11.7378 18.41 11.711 18.2394 11.6497 18.0802C11.5885 17.921 11.4941 17.7769 11.3731 17.6576C11.1148 17.4262 10.7774 17.3055 10.4325 17.3211C10.2639 17.3122 10.0953 17.3371 9.93639 17.3944C9.77745 17.4518 9.63136 17.5404 9.50656 17.6552C9.38872 17.7762 9.29733 17.9209 9.23826 18.0799C9.17919 18.2389 9.15377 18.4086 9.16363 18.5781V21.2233H7.64005C7.34104 21.2046 7.04612 21.301 6.81458 21.493C6.7146 21.5873 6.63642 21.7027 6.58562 21.831C6.53481 21.9593 6.51263 22.0974 6.52064 22.2353C6.52064 22.8952 6.89378 23.2251 7.64005 23.2251H9.16363V29.2553C9.16363 30.7078 9.50166 31.8089 10.1802 32.5512C10.8587 33.2935 11.8801 33.7192 13.2518 33.8231L13.9377 33.8726C14.3363 33.9307 14.7427 33.8541 15.0938 33.6548C15.2211 33.5703 15.3244 33.4538 15.3936 33.3167C15.4627 33.1795 15.4953 33.0266 15.4882 32.8729C15.4952 32.7486 15.477 32.6242 15.4349 32.5072C15.3928 32.3903 15.3276 32.2832 15.2432 32.1924C15.0204 32.006 14.7413 31.9021 14.4521 31.898Z" fill="#2963A3"/>
<path d="M33.8935 15.5268C33.5562 15.5154 33.2266 15.6299 32.9676 15.8485C32.8414 15.967 32.7429 16.1125 32.6793 16.2743C32.6158 16.4361 32.5887 16.6102 32.6002 16.7839V32.6425C32.5879 32.8144 32.6146 32.9869 32.6783 33.1469C32.742 33.3068 32.8409 33.45 32.9676 33.5654C33.23 33.7763 33.5585 33.8852 33.8935 33.8723C34.2258 33.8866 34.5517 33.7775 34.8096 33.5654C34.9327 33.4477 35.0284 33.3038 35.0898 33.1442C35.1512 32.9846 35.1768 32.8133 35.1648 32.6425V16.7839C35.1761 16.6113 35.1502 16.4383 35.0889 16.2768C35.0276 16.1153 34.9323 15.9692 34.8096 15.8485C34.5551 15.6289 34.228 15.514 33.8935 15.5268Z" fill="#2963A3"/>
<path d="M47.5418 31.7171L42.5644 27.2779L47.0862 23.0961C47.2172 22.9859 47.3236 22.8489 47.3984 22.694C47.4731 22.5392 47.5145 22.3701 47.5197 22.1979C47.5116 21.8805 47.383 21.5783 47.1605 21.354C46.938 21.1297 46.6386 21.0004 46.3244 20.9929C46.0077 21.0134 45.7096 21.1508 45.4867 21.3789L39.6961 26.8424V16.7839C39.7079 16.6112 39.6822 16.4381 39.6209 16.2765C39.5595 16.115 39.464 15.9689 39.3409 15.8485C39.0874 15.6288 38.7611 15.5139 38.4273 15.5269C38.0892 15.5152 37.7587 15.6297 37.4989 15.8485C37.3727 15.967 37.2742 16.1125 37.2106 16.2743C37.147 16.4361 37.12 16.6102 37.1315 16.7839V32.6202C37.12 32.7943 37.147 32.9688 37.2106 33.131C37.2741 33.2932 37.3726 33.4391 37.4989 33.558C37.7591 33.7759 38.0895 33.8896 38.4273 33.8772C38.7607 33.8909 39.087 33.7769 39.3409 33.558C39.464 33.4372 39.5596 33.2907 39.621 33.1287C39.6823 32.9668 39.7079 32.7932 39.6961 32.6202V27.8693L46.0206 33.5135C46.2506 33.7439 46.5615 33.8729 46.8853 33.8723C47.0342 33.8731 47.1815 33.8414 47.3172 33.7795C47.4529 33.7176 47.5737 33.6269 47.6716 33.5135C47.8912 33.286 48.0127 32.98 48.0096 32.6623C48.009 32.479 47.9664 32.2983 47.8852 32.1343C47.8041 31.9704 47.6865 31.8276 47.5418 31.7171Z" fill="#2963A3"/>
<path d="M14.4323 13.0081H21.0165C22.1382 13.0327 23.2465 12.7588 24.2303 12.2138C25.1473 11.6865 25.8896 10.8971 26.3637 9.94479C26.8803 8.87916 27.1365 7.70396 27.1108 6.5177C27.1395 5.32401 26.8832 4.14089 26.3637 3.06835C25.8911 2.11373 25.1486 1.32231 24.2303 0.794349C23.2465 0.249419 22.1382 -0.0245108 21.0165 5.71853e-05H18.9369C17.816 -0.0245413 16.7085 0.249404 15.7257 0.794349C14.8063 1.32088 14.0634 2.11269 13.5922 3.06835C13.0718 4.14068 12.8147 5.32381 12.8426 6.5177V10.1452C12.8426 12.2361 13.3717 13.0081 14.4323 13.0081ZM16.3478 3.21682C16.9586 2.45799 17.8216 2.07858 18.9369 2.07858H21.0165C22.1335 2.07858 22.9973 2.45964 23.6081 3.22176C24.2188 3.98389 24.5234 5.08253 24.5217 6.5177C24.5217 7.97102 24.2213 9.07379 23.6203 9.82601C23.0194 10.5782 22.1515 10.9552 21.0165 10.9568H15.4636C15.4636 10.9568 15.4317 7.97019 15.4317 6.5177C15.4317 5.06521 15.7379 3.98141 16.3478 3.21682Z" fill="#2963A3"/>
<path d="M27.8677 21.6684C26.8854 21.1218 25.7776 20.847 24.6564 20.8716H22.5768C21.455 20.8482 20.3467 21.1229 19.3631 21.6684C18.4449 22.1954 17.7023 22.986 17.2296 23.9399C16.7157 25.014 16.4637 26.1967 16.4947 27.3893C16.4661 28.5745 16.718 29.7494 17.2296 30.8164C17.703 31.7692 18.4455 32.5588 19.3631 33.0854C20.3469 33.63 21.4552 33.9039 22.5768 33.8797H29.161C30.2241 33.8797 30.7507 33.1077 30.7507 31.0094V27.3893C30.7792 26.1953 30.5221 25.0121 30.0012 23.9399C29.5299 22.9849 28.787 22.1939 27.8677 21.6684ZM28.1298 31.8284H22.5768C21.4451 31.8284 20.5772 31.4523 19.973 30.7001C19.3688 29.9478 19.0691 28.8443 19.074 27.3893C19.074 25.9508 19.3786 24.8522 19.9877 24.0933C20.5968 23.3345 21.4598 22.9535 22.5768 22.9502H24.6564C25.7734 22.9502 26.6372 23.3312 27.248 24.0933C27.8587 24.8555 28.1657 25.9541 28.169 27.3893C28.169 28.8418 28.1298 31.8284 28.1298 31.8284Z" fill="#2963A3"/>
</g>
<defs>
<clipPath id="clip0_4492_658">
<rect width="48" height="34" fill="white"/>
</clipPath>
</defs>
</svg>
